<mxfile host="app.diagrams.net" agent="Mozilla/5.0 (Windows NT 10.0; Win64; x64) AppleWebKit/537.36 (KHTML, like Gecko) Chrome/127.0.0.0 Safari/537.36" version="24.7.7" pages="2">
  <diagram name="페이지-1" id="2xDVq4mS7-84KwQRGWEq">
    <mxGraphModel dx="1434" dy="780" grid="1" gridSize="10" guides="1" tooltips="1" connect="1" arrows="1" fold="1" page="1" pageScale="1" pageWidth="827" pageHeight="1169" math="0" shadow="0">
      <root>
        <mxCell id="0" />
        <mxCell id="1" parent="0" />
        <mxCell id="Fi-2ybk5s7FLa70-GjzI-1" value="비회원" style="shape=umlActor;verticalLabelPosition=bottom;verticalAlign=top;html=1;" parent="1" vertex="1">
          <mxGeometry x="20" y="240" width="30" height="60" as="geometry" />
        </mxCell>
        <mxCell id="Fi-2ybk5s7FLa70-GjzI-2" value="Use" style="endArrow=classic;endSize=12;html=1;rounded=0;fontSize=12;curved=1;endFill=1;exitX=1;exitY=0.3333333333333333;exitDx=0;exitDy=0;exitPerimeter=0;entryX=0;entryY=0.5;entryDx=0;entryDy=0;" parent="1" source="Fi-2ybk5s7FLa70-GjzI-1" target="Fi-2ybk5s7FLa70-GjzI-7" edge="1">
          <mxGeometry width="160" relative="1" as="geometry">
            <mxPoint x="100" y="159.5" as="sourcePoint" />
            <mxPoint x="230" y="159.5" as="targetPoint" />
          </mxGeometry>
        </mxCell>
        <mxCell id="Fi-2ybk5s7FLa70-GjzI-7" value="회원 가입" style="ellipse;whiteSpace=wrap;html=1;" parent="1" vertex="1">
          <mxGeometry x="260" y="230" width="70" height="70" as="geometry" />
        </mxCell>
        <mxCell id="Fi-2ybk5s7FLa70-GjzI-8" value="음원검색" style="ellipse;whiteSpace=wrap;html=1;" parent="1" vertex="1">
          <mxGeometry x="270" y="340" width="70" height="70" as="geometry" />
        </mxCell>
        <mxCell id="Fi-2ybk5s7FLa70-GjzI-9" value="Use" style="endArrow=classic;endSize=12;html=1;rounded=0;fontSize=12;curved=1;endFill=1;exitX=1;exitY=0.3333333333333333;exitDx=0;exitDy=0;exitPerimeter=0;entryX=0;entryY=0;entryDx=0;entryDy=0;" parent="1" source="Fi-2ybk5s7FLa70-GjzI-1" target="Fi-2ybk5s7FLa70-GjzI-8" edge="1">
          <mxGeometry width="160" relative="1" as="geometry">
            <mxPoint x="100" y="159.5" as="sourcePoint" />
            <mxPoint x="305" y="340" as="targetPoint" />
          </mxGeometry>
        </mxCell>
        <mxCell id="Fi-2ybk5s7FLa70-GjzI-15" style="edgeStyle=none;curved=1;rounded=0;orthogonalLoop=1;jettySize=auto;html=1;fontSize=12;startSize=8;endSize=8;dashed=1;endArrow=open;endFill=0;exitX=1;exitY=0;exitDx=0;exitDy=0;" parent="1" source="Fi-2ybk5s7FLa70-GjzI-17" target="Fi-2ybk5s7FLa70-GjzI-14" edge="1">
          <mxGeometry relative="1" as="geometry" />
        </mxCell>
        <mxCell id="Fi-2ybk5s7FLa70-GjzI-16" value="&amp;lt;extend&amp;gt;&amp;gt;" style="edgeLabel;html=1;align=center;verticalAlign=middle;resizable=0;points=[];fontSize=12;" parent="Fi-2ybk5s7FLa70-GjzI-15" vertex="1" connectable="0">
          <mxGeometry x="0.0364" y="2" relative="1" as="geometry">
            <mxPoint as="offset" />
          </mxGeometry>
        </mxCell>
        <mxCell id="Fi-2ybk5s7FLa70-GjzI-10" value="음원&amp;nbsp;&lt;div&gt;다운로드&lt;/div&gt;" style="ellipse;whiteSpace=wrap;html=1;" parent="1" vertex="1">
          <mxGeometry x="610" y="960" width="50" height="50" as="geometry" />
        </mxCell>
        <mxCell id="Fi-2ybk5s7FLa70-GjzI-12" value="회원" style="shape=umlActor;verticalLabelPosition=bottom;verticalAlign=top;html=1;" parent="1" vertex="1">
          <mxGeometry x="10" y="640" width="30" height="60" as="geometry" />
        </mxCell>
        <mxCell id="Fi-2ybk5s7FLa70-GjzI-14" value="정액제 결제" style="ellipse;whiteSpace=wrap;html=1;" parent="1" vertex="1">
          <mxGeometry x="230" y="860" width="70" height="70" as="geometry" />
        </mxCell>
        <mxCell id="Fi-2ybk5s7FLa70-GjzI-17" value="카드 결제" style="ellipse;whiteSpace=wrap;html=1;" parent="1" vertex="1">
          <mxGeometry x="190" y="990" width="40" height="40" as="geometry" />
        </mxCell>
        <mxCell id="Fi-2ybk5s7FLa70-GjzI-20" value="간편 결제" style="ellipse;whiteSpace=wrap;html=1;" parent="1" vertex="1">
          <mxGeometry x="330" y="990" width="40" height="40" as="geometry" />
        </mxCell>
        <mxCell id="Fi-2ybk5s7FLa70-GjzI-21" value="휴대폰&lt;div&gt;결제&lt;/div&gt;" style="ellipse;whiteSpace=wrap;html=1;" parent="1" vertex="1">
          <mxGeometry x="260" y="990" width="40" height="40" as="geometry" />
        </mxCell>
        <mxCell id="Fi-2ybk5s7FLa70-GjzI-22" style="edgeStyle=none;curved=1;rounded=0;orthogonalLoop=1;jettySize=auto;html=1;fontSize=12;startSize=8;endSize=8;dashed=1;endArrow=open;endFill=0;exitX=0.5;exitY=0;exitDx=0;exitDy=0;" parent="1" source="Fi-2ybk5s7FLa70-GjzI-21" target="Fi-2ybk5s7FLa70-GjzI-14" edge="1">
          <mxGeometry relative="1" as="geometry" />
        </mxCell>
        <mxCell id="Fi-2ybk5s7FLa70-GjzI-23" value="&amp;lt;extend&amp;gt;&amp;gt;" style="edgeLabel;html=1;align=center;verticalAlign=middle;resizable=0;points=[];fontSize=12;" parent="Fi-2ybk5s7FLa70-GjzI-22" vertex="1" connectable="0">
          <mxGeometry x="0.0364" y="2" relative="1" as="geometry">
            <mxPoint as="offset" />
          </mxGeometry>
        </mxCell>
        <mxCell id="Fi-2ybk5s7FLa70-GjzI-24" style="edgeStyle=none;curved=1;rounded=0;orthogonalLoop=1;jettySize=auto;html=1;fontSize=12;startSize=8;endSize=8;dashed=1;endArrow=open;endFill=0;exitX=0.5;exitY=0;exitDx=0;exitDy=0;" parent="1" source="Fi-2ybk5s7FLa70-GjzI-20" target="Fi-2ybk5s7FLa70-GjzI-14" edge="1">
          <mxGeometry relative="1" as="geometry" />
        </mxCell>
        <mxCell id="Fi-2ybk5s7FLa70-GjzI-25" value="&amp;lt;extend&amp;gt;&amp;gt;" style="edgeLabel;html=1;align=center;verticalAlign=middle;resizable=0;points=[];fontSize=12;" parent="Fi-2ybk5s7FLa70-GjzI-24" vertex="1" connectable="0">
          <mxGeometry x="0.0364" y="2" relative="1" as="geometry">
            <mxPoint as="offset" />
          </mxGeometry>
        </mxCell>
        <mxCell id="Fi-2ybk5s7FLa70-GjzI-27" value="음원 서비스" style="ellipse;whiteSpace=wrap;html=1;" parent="1" vertex="1">
          <mxGeometry x="260" y="500" width="70" height="70" as="geometry" />
        </mxCell>
        <mxCell id="Fi-2ybk5s7FLa70-GjzI-28" value="음원&lt;div&gt;삭제&lt;/div&gt;" style="ellipse;whiteSpace=wrap;html=1;" parent="1" vertex="1">
          <mxGeometry x="150" y="410" width="50" height="50" as="geometry" />
        </mxCell>
        <mxCell id="Fi-2ybk5s7FLa70-GjzI-29" value="Use" style="endArrow=classic;endSize=12;html=1;rounded=0;fontSize=12;curved=1;endFill=1;entryX=0.5;entryY=0;entryDx=0;entryDy=0;exitX=1;exitY=0.3333333333333333;exitDx=0;exitDy=0;exitPerimeter=0;" parent="1" source="Fi-2ybk5s7FLa70-GjzI-1" target="Fi-2ybk5s7FLa70-GjzI-28" edge="1">
          <mxGeometry width="160" relative="1" as="geometry">
            <mxPoint x="100" y="159.5" as="sourcePoint" />
            <mxPoint x="230" y="159.5" as="targetPoint" />
          </mxGeometry>
        </mxCell>
        <mxCell id="Fi-2ybk5s7FLa70-GjzI-30" value="" style="endArrow=block;endSize=12;html=1;rounded=0;fontSize=12;curved=1;endFill=0;entryX=0;entryY=0;entryDx=0;entryDy=0;exitX=1;exitY=1;exitDx=0;exitDy=0;" parent="1" source="Fi-2ybk5s7FLa70-GjzI-28" target="Fi-2ybk5s7FLa70-GjzI-27" edge="1">
          <mxGeometry width="160" relative="1" as="geometry">
            <mxPoint x="110" y="169.5" as="sourcePoint" />
            <mxPoint x="120" y="420" as="targetPoint" />
          </mxGeometry>
        </mxCell>
        <mxCell id="Fi-2ybk5s7FLa70-GjzI-31" value="음원&amp;nbsp;&lt;div&gt;듣기&lt;/div&gt;" style="ellipse;whiteSpace=wrap;html=1;" parent="1" vertex="1">
          <mxGeometry x="120" y="470" width="50" height="50" as="geometry" />
        </mxCell>
        <mxCell id="Fi-2ybk5s7FLa70-GjzI-32" value="음원&lt;div&gt;업로드&lt;/div&gt;" style="ellipse;whiteSpace=wrap;html=1;fontStyle=1" parent="1" vertex="1">
          <mxGeometry x="210" y="380" width="50" height="50" as="geometry" />
        </mxCell>
        <mxCell id="Fi-2ybk5s7FLa70-GjzI-33" value="" style="endArrow=block;endSize=12;html=1;rounded=0;fontSize=12;curved=1;endFill=0;exitX=1;exitY=0.5;exitDx=0;exitDy=0;" parent="1" source="Fi-2ybk5s7FLa70-GjzI-31" target="Fi-2ybk5s7FLa70-GjzI-27" edge="1">
          <mxGeometry width="160" relative="1" as="geometry">
            <mxPoint x="110" y="169.5" as="sourcePoint" />
            <mxPoint x="120" y="420" as="targetPoint" />
          </mxGeometry>
        </mxCell>
        <mxCell id="Fi-2ybk5s7FLa70-GjzI-34" value="" style="endArrow=block;endSize=12;html=1;rounded=0;fontSize=12;curved=1;endFill=0;entryX=0;entryY=0;entryDx=0;entryDy=0;exitX=0.5;exitY=1;exitDx=0;exitDy=0;" parent="1" source="Fi-2ybk5s7FLa70-GjzI-32" target="Fi-2ybk5s7FLa70-GjzI-27" edge="1">
          <mxGeometry width="160" relative="1" as="geometry">
            <mxPoint x="110" y="169.5" as="sourcePoint" />
            <mxPoint x="120" y="420" as="targetPoint" />
          </mxGeometry>
        </mxCell>
        <mxCell id="Fi-2ybk5s7FLa70-GjzI-37" value="" style="endArrow=classic;endSize=12;html=1;rounded=0;fontSize=12;curved=1;endFill=1;exitX=1;exitY=0.3333333333333333;exitDx=0;exitDy=0;exitPerimeter=0;" parent="1" source="Fi-2ybk5s7FLa70-GjzI-12" target="Fi-2ybk5s7FLa70-GjzI-27" edge="1">
          <mxGeometry width="160" relative="1" as="geometry">
            <mxPoint x="110" y="169.5" as="sourcePoint" />
            <mxPoint x="120" y="420" as="targetPoint" />
          </mxGeometry>
        </mxCell>
        <mxCell id="Fi-2ybk5s7FLa70-GjzI-38" value="use" style="edgeLabel;html=1;align=center;verticalAlign=middle;resizable=0;points=[];fontSize=12;" parent="Fi-2ybk5s7FLa70-GjzI-37" vertex="1" connectable="0">
          <mxGeometry x="0.1103" y="1" relative="1" as="geometry">
            <mxPoint as="offset" />
          </mxGeometry>
        </mxCell>
        <mxCell id="Fi-2ybk5s7FLa70-GjzI-39" value="" style="endArrow=block;endSize=12;html=1;rounded=0;fontSize=12;curved=1;endFill=0;exitX=0.5;exitY=1;exitDx=0;exitDy=0;" parent="1" source="Fi-2ybk5s7FLa70-GjzI-8" target="Fi-2ybk5s7FLa70-GjzI-27" edge="1">
          <mxGeometry width="160" relative="1" as="geometry">
            <mxPoint x="110" y="169.5" as="sourcePoint" />
            <mxPoint x="120" y="420" as="targetPoint" />
          </mxGeometry>
        </mxCell>
        <mxCell id="Fi-2ybk5s7FLa70-GjzI-40" style="edgeStyle=none;curved=1;rounded=0;orthogonalLoop=1;jettySize=auto;html=1;fontSize=12;startSize=8;endSize=8;dashed=1;endArrow=open;endFill=0;exitX=0;exitY=1;exitDx=0;exitDy=0;" parent="1" source="Fi-2ybk5s7FLa70-GjzI-42" target="Fi-2ybk5s7FLa70-GjzI-8" edge="1">
          <mxGeometry relative="1" as="geometry">
            <mxPoint x="261" y="947" as="targetPoint" />
          </mxGeometry>
        </mxCell>
        <mxCell id="Fi-2ybk5s7FLa70-GjzI-41" value="&amp;lt;extend&amp;gt;&amp;gt;" style="edgeLabel;html=1;align=center;verticalAlign=middle;resizable=0;points=[];fontSize=12;" parent="Fi-2ybk5s7FLa70-GjzI-40" vertex="1" connectable="0">
          <mxGeometry x="0.0364" y="2" relative="1" as="geometry">
            <mxPoint as="offset" />
          </mxGeometry>
        </mxCell>
        <mxCell id="Fi-2ybk5s7FLa70-GjzI-42" value="키워드&lt;div&gt;조회&lt;/div&gt;" style="ellipse;whiteSpace=wrap;html=1;" parent="1" vertex="1">
          <mxGeometry x="370" y="270" width="40" height="40" as="geometry" />
        </mxCell>
        <mxCell id="Fi-2ybk5s7FLa70-GjzI-43" value="키워드&lt;div&gt;조회&lt;/div&gt;" style="ellipse;whiteSpace=wrap;html=1;" parent="1" vertex="1">
          <mxGeometry x="414" y="320" width="40" height="40" as="geometry" />
        </mxCell>
        <mxCell id="Fi-2ybk5s7FLa70-GjzI-44" value="키워드&lt;div&gt;조회&lt;/div&gt;" style="ellipse;whiteSpace=wrap;html=1;" parent="1" vertex="1">
          <mxGeometry x="414" y="380" width="40" height="40" as="geometry" />
        </mxCell>
        <mxCell id="Fi-2ybk5s7FLa70-GjzI-45" style="edgeStyle=none;curved=1;rounded=0;orthogonalLoop=1;jettySize=auto;html=1;fontSize=12;startSize=8;endSize=8;dashed=1;endArrow=open;endFill=0;exitX=0;exitY=0.5;exitDx=0;exitDy=0;" parent="1" source="Fi-2ybk5s7FLa70-GjzI-43" target="Fi-2ybk5s7FLa70-GjzI-8" edge="1">
          <mxGeometry relative="1" as="geometry">
            <mxPoint x="261" y="947" as="targetPoint" />
          </mxGeometry>
        </mxCell>
        <mxCell id="Fi-2ybk5s7FLa70-GjzI-46" value="&amp;lt;extend&amp;gt;&amp;gt;" style="edgeLabel;html=1;align=center;verticalAlign=middle;resizable=0;points=[];fontSize=12;" parent="Fi-2ybk5s7FLa70-GjzI-45" vertex="1" connectable="0">
          <mxGeometry x="0.0364" y="2" relative="1" as="geometry">
            <mxPoint as="offset" />
          </mxGeometry>
        </mxCell>
        <mxCell id="Fi-2ybk5s7FLa70-GjzI-47" style="edgeStyle=none;curved=1;rounded=0;orthogonalLoop=1;jettySize=auto;html=1;fontSize=12;startSize=8;endSize=8;dashed=1;endArrow=open;endFill=0;exitX=0;exitY=0.5;exitDx=0;exitDy=0;" parent="1" source="Fi-2ybk5s7FLa70-GjzI-44" target="Fi-2ybk5s7FLa70-GjzI-8" edge="1">
          <mxGeometry relative="1" as="geometry">
            <mxPoint x="261" y="947" as="targetPoint" />
          </mxGeometry>
        </mxCell>
        <mxCell id="Fi-2ybk5s7FLa70-GjzI-48" value="&amp;lt;extend&amp;gt;&amp;gt;" style="edgeLabel;html=1;align=center;verticalAlign=middle;resizable=0;points=[];fontSize=12;" parent="Fi-2ybk5s7FLa70-GjzI-47" vertex="1" connectable="0">
          <mxGeometry x="0.0364" y="2" relative="1" as="geometry">
            <mxPoint as="offset" />
          </mxGeometry>
        </mxCell>
        <mxCell id="Fi-2ybk5s7FLa70-GjzI-49" value="결제 대행 시스템" style="shape=umlActor;verticalLabelPosition=bottom;verticalAlign=top;html=1;" parent="1" vertex="1">
          <mxGeometry x="424" y="875" width="30" height="60" as="geometry" />
        </mxCell>
        <mxCell id="Fi-2ybk5s7FLa70-GjzI-50" value="" style="endArrow=classic;endSize=12;html=1;rounded=0;fontSize=12;curved=1;endFill=1;entryX=0;entryY=0.3333333333333333;entryDx=0;entryDy=0;exitX=1;exitY=0.5;exitDx=0;exitDy=0;entryPerimeter=0;" parent="1" source="Fi-2ybk5s7FLa70-GjzI-14" target="Fi-2ybk5s7FLa70-GjzI-49" edge="1">
          <mxGeometry width="160" relative="1" as="geometry">
            <mxPoint x="95" y="680" as="sourcePoint" />
            <mxPoint x="135" y="580" as="targetPoint" />
          </mxGeometry>
        </mxCell>
        <mxCell id="Fi-2ybk5s7FLa70-GjzI-51" value="use" style="edgeLabel;html=1;align=center;verticalAlign=middle;resizable=0;points=[];fontSize=12;" parent="Fi-2ybk5s7FLa70-GjzI-50" vertex="1" connectable="0">
          <mxGeometry x="0.1103" y="1" relative="1" as="geometry">
            <mxPoint as="offset" />
          </mxGeometry>
        </mxCell>
        <mxCell id="Fi-2ybk5s7FLa70-GjzI-52" value="음원신고" style="ellipse;whiteSpace=wrap;html=1;" parent="1" vertex="1">
          <mxGeometry x="290" y="630" width="70" height="70" as="geometry" />
        </mxCell>
        <mxCell id="Fi-2ybk5s7FLa70-GjzI-53" value="" style="endArrow=classic;endSize=12;html=1;rounded=0;fontSize=12;curved=1;endFill=1;entryX=0;entryY=0.5;entryDx=0;entryDy=0;" parent="1" target="Fi-2ybk5s7FLa70-GjzI-52" edge="1">
          <mxGeometry width="160" relative="1" as="geometry">
            <mxPoint x="40" y="660" as="sourcePoint" />
            <mxPoint x="120" y="420" as="targetPoint" />
          </mxGeometry>
        </mxCell>
        <mxCell id="Fi-2ybk5s7FLa70-GjzI-54" value="use" style="edgeLabel;html=1;align=center;verticalAlign=middle;resizable=0;points=[];fontSize=12;" parent="Fi-2ybk5s7FLa70-GjzI-53" vertex="1" connectable="0">
          <mxGeometry x="0.1103" y="1" relative="1" as="geometry">
            <mxPoint as="offset" />
          </mxGeometry>
        </mxCell>
        <mxCell id="Fi-2ybk5s7FLa70-GjzI-56" style="edgeStyle=none;curved=1;rounded=0;orthogonalLoop=1;jettySize=auto;html=1;fontSize=12;startSize=8;endSize=8;dashed=1;endArrow=open;endFill=0;exitX=1;exitY=0.5;exitDx=0;exitDy=0;entryX=0;entryY=0.5;entryDx=0;entryDy=0;" parent="1" target="Fi-2ybk5s7FLa70-GjzI-60" edge="1">
          <mxGeometry relative="1" as="geometry">
            <mxPoint x="359" y="664.5" as="sourcePoint" />
            <mxPoint x="469" y="664.5" as="targetPoint" />
          </mxGeometry>
        </mxCell>
        <mxCell id="Fi-2ybk5s7FLa70-GjzI-57" value="&amp;lt;&amp;lt;include&amp;gt;&amp;gt;" style="edgeLabel;html=1;align=center;verticalAlign=middle;resizable=0;points=[];fontSize=12;" parent="Fi-2ybk5s7FLa70-GjzI-56" vertex="1" connectable="0">
          <mxGeometry x="0.0364" y="2" relative="1" as="geometry">
            <mxPoint as="offset" />
          </mxGeometry>
        </mxCell>
        <mxCell id="Fi-2ybk5s7FLa70-GjzI-60" value="인증 서비스" style="ellipse;whiteSpace=wrap;html=1;" parent="1" vertex="1">
          <mxGeometry x="490" y="490" width="70" height="70" as="geometry" />
        </mxCell>
        <mxCell id="Fi-2ybk5s7FLa70-GjzI-62" value="보관함" style="ellipse;whiteSpace=wrap;html=1;" parent="1" vertex="1">
          <mxGeometry x="490" y="750" width="70" height="70" as="geometry" />
        </mxCell>
        <mxCell id="Fi-2ybk5s7FLa70-GjzI-63" style="edgeStyle=none;curved=1;rounded=0;orthogonalLoop=1;jettySize=auto;html=1;fontSize=12;startSize=8;endSize=8;dashed=1;endArrow=open;endFill=0;exitX=0.5;exitY=0;exitDx=0;exitDy=0;entryX=0.5;entryY=1;entryDx=0;entryDy=0;" parent="1" source="Fi-2ybk5s7FLa70-GjzI-62" target="Fi-2ybk5s7FLa70-GjzI-60" edge="1">
          <mxGeometry relative="1" as="geometry">
            <mxPoint x="359" y="664.5" as="sourcePoint" />
            <mxPoint x="469" y="664.5" as="targetPoint" />
          </mxGeometry>
        </mxCell>
        <mxCell id="Fi-2ybk5s7FLa70-GjzI-64" value="&amp;lt;&amp;lt;include&amp;gt;&amp;gt;" style="edgeLabel;html=1;align=center;verticalAlign=middle;resizable=0;points=[];fontSize=12;" parent="Fi-2ybk5s7FLa70-GjzI-63" vertex="1" connectable="0">
          <mxGeometry x="0.0364" y="2" relative="1" as="geometry">
            <mxPoint as="offset" />
          </mxGeometry>
        </mxCell>
        <mxCell id="Fi-2ybk5s7FLa70-GjzI-66" value="수정" style="ellipse;whiteSpace=wrap;html=1;" parent="1" vertex="1">
          <mxGeometry x="630" y="710" width="50" height="50" as="geometry" />
        </mxCell>
        <mxCell id="Fi-2ybk5s7FLa70-GjzI-68" value="조회" style="ellipse;whiteSpace=wrap;html=1;" parent="1" vertex="1">
          <mxGeometry x="540" y="875" width="50" height="50" as="geometry" />
        </mxCell>
        <mxCell id="Fi-2ybk5s7FLa70-GjzI-69" value="플레이&lt;div&gt;리스트&lt;/div&gt;" style="ellipse;whiteSpace=wrap;html=1;" parent="1" vertex="1">
          <mxGeometry x="610" y="850" width="50" height="50" as="geometry" />
        </mxCell>
        <mxCell id="Fi-2ybk5s7FLa70-GjzI-70" value="선호&lt;div&gt;카테&lt;span style=&quot;background-color: initial;&quot;&gt;고리&lt;/span&gt;&lt;/div&gt;" style="ellipse;whiteSpace=wrap;html=1;" parent="1" vertex="1">
          <mxGeometry x="630" y="780" width="50" height="50" as="geometry" />
        </mxCell>
        <mxCell id="Fi-2ybk5s7FLa70-GjzI-84" value="Music" style="shape=umlFrame;whiteSpace=wrap;html=1;pointerEvents=0;" parent="1" vertex="1">
          <mxGeometry x="70" y="160" width="770" height="970" as="geometry" />
        </mxCell>
        <mxCell id="Fi-2ybk5s7FLa70-GjzI-85" value="" style="endArrow=classic;endSize=12;html=1;rounded=0;fontSize=12;curved=1;endFill=1;" parent="1" target="Fi-2ybk5s7FLa70-GjzI-84" edge="1">
          <mxGeometry width="160" relative="1" as="geometry">
            <mxPoint x="40" y="660" as="sourcePoint" />
            <mxPoint x="120" y="420" as="targetPoint" />
          </mxGeometry>
        </mxCell>
        <mxCell id="Fi-2ybk5s7FLa70-GjzI-86" value="use" style="edgeLabel;html=1;align=center;verticalAlign=middle;resizable=0;points=[];fontSize=12;" parent="Fi-2ybk5s7FLa70-GjzI-85" vertex="1" connectable="0">
          <mxGeometry x="0.1103" y="1" relative="1" as="geometry">
            <mxPoint as="offset" />
          </mxGeometry>
        </mxCell>
        <mxCell id="Fi-2ybk5s7FLa70-GjzI-89" value="" style="endArrow=classic;endSize=12;html=1;rounded=0;fontSize=12;curved=1;endFill=1;entryX=0;entryY=0;entryDx=0;entryDy=0;" parent="1" target="Fi-2ybk5s7FLa70-GjzI-14" edge="1">
          <mxGeometry width="160" relative="1" as="geometry">
            <mxPoint x="40" y="660" as="sourcePoint" />
            <mxPoint x="120" y="420" as="targetPoint" />
          </mxGeometry>
        </mxCell>
        <mxCell id="Fi-2ybk5s7FLa70-GjzI-90" value="use" style="edgeLabel;html=1;align=center;verticalAlign=middle;resizable=0;points=[];fontSize=12;" parent="Fi-2ybk5s7FLa70-GjzI-89" vertex="1" connectable="0">
          <mxGeometry x="0.1103" y="1" relative="1" as="geometry">
            <mxPoint as="offset" />
          </mxGeometry>
        </mxCell>
        <mxCell id="Fi-2ybk5s7FLa70-GjzI-91" style="edgeStyle=none;curved=1;rounded=0;orthogonalLoop=1;jettySize=auto;html=1;fontSize=12;startSize=8;endSize=8;dashed=1;endArrow=open;endFill=0;entryX=0.5;entryY=1;entryDx=0;entryDy=0;exitX=0.5;exitY=0;exitDx=0;exitDy=0;" parent="1" source="Fi-2ybk5s7FLa70-GjzI-10" target="Fi-2ybk5s7FLa70-GjzI-69" edge="1">
          <mxGeometry relative="1" as="geometry">
            <mxPoint x="369" y="674.5" as="sourcePoint" />
            <mxPoint x="520" y="630" as="targetPoint" />
          </mxGeometry>
        </mxCell>
        <mxCell id="Fi-2ybk5s7FLa70-GjzI-92" value="&amp;lt;&amp;lt;extend&amp;gt;&amp;gt;" style="edgeLabel;html=1;align=center;verticalAlign=middle;resizable=0;points=[];fontSize=12;" parent="Fi-2ybk5s7FLa70-GjzI-91" vertex="1" connectable="0">
          <mxGeometry x="0.0364" y="2" relative="1" as="geometry">
            <mxPoint as="offset" />
          </mxGeometry>
        </mxCell>
        <mxCell id="Fi-2ybk5s7FLa70-GjzI-96" value="" style="endArrow=block;endSize=12;html=1;rounded=0;fontSize=12;curved=1;endFill=0;entryX=0.946;entryY=0.718;entryDx=0;entryDy=0;exitX=0;exitY=1;exitDx=0;exitDy=0;entryPerimeter=0;" parent="1" source="Fi-2ybk5s7FLa70-GjzI-66" target="Fi-2ybk5s7FLa70-GjzI-62" edge="1">
          <mxGeometry width="160" relative="1" as="geometry">
            <mxPoint x="700" y="720" as="sourcePoint" />
            <mxPoint x="660" y="555" as="targetPoint" />
            <Array as="points">
              <mxPoint x="590" y="780" />
            </Array>
          </mxGeometry>
        </mxCell>
        <mxCell id="Fi-2ybk5s7FLa70-GjzI-98" value="" style="endArrow=block;endSize=12;html=1;rounded=0;fontSize=12;curved=1;endFill=0;entryX=1;entryY=1;entryDx=0;entryDy=0;exitX=0.5;exitY=0;exitDx=0;exitDy=0;" parent="1" source="Fi-2ybk5s7FLa70-GjzI-68" target="Fi-2ybk5s7FLa70-GjzI-62" edge="1">
          <mxGeometry width="160" relative="1" as="geometry">
            <mxPoint x="410" y="550" as="sourcePoint" />
            <mxPoint x="660" y="555" as="targetPoint" />
          </mxGeometry>
        </mxCell>
        <mxCell id="Fi-2ybk5s7FLa70-GjzI-99" value="" style="endArrow=block;endSize=12;html=1;rounded=0;fontSize=12;curved=1;endFill=0;entryX=1;entryY=1;entryDx=0;entryDy=0;exitX=0;exitY=0;exitDx=0;exitDy=0;" parent="1" source="Fi-2ybk5s7FLa70-GjzI-69" target="Fi-2ybk5s7FLa70-GjzI-62" edge="1">
          <mxGeometry width="160" relative="1" as="geometry">
            <mxPoint x="410" y="550" as="sourcePoint" />
            <mxPoint x="660" y="555" as="targetPoint" />
          </mxGeometry>
        </mxCell>
        <mxCell id="Fi-2ybk5s7FLa70-GjzI-101" value="비회원" style="shape=umlActor;verticalLabelPosition=bottom;verticalAlign=top;html=1;" parent="1" vertex="1">
          <mxGeometry x="910" y="260" width="30" height="60" as="geometry" />
        </mxCell>
        <mxCell id="Fi-2ybk5s7FLa70-GjzI-102" value="회원 제재" style="ellipse;whiteSpace=wrap;html=1;" parent="1" vertex="1">
          <mxGeometry x="550" y="210" width="70" height="70" as="geometry" />
        </mxCell>
        <mxCell id="Fi-2ybk5s7FLa70-GjzI-103" value="인증 서비스" style="ellipse;whiteSpace=wrap;html=1;" parent="1" vertex="1">
          <mxGeometry x="650" y="290" width="70" height="70" as="geometry" />
        </mxCell>
        <mxCell id="Fi-2ybk5s7FLa70-GjzI-104" value="인증 서비스" style="ellipse;whiteSpace=wrap;html=1;" parent="1" vertex="1">
          <mxGeometry x="640" y="400" width="70" height="70" as="geometry" />
        </mxCell>
        <mxCell id="Fi-2ybk5s7FLa70-GjzI-106" value="" style="endArrow=classic;endSize=12;html=1;rounded=0;fontSize=12;curved=1;endFill=1;exitX=0;exitY=0.3333333333333333;exitDx=0;exitDy=0;entryX=1;entryY=0;entryDx=0;entryDy=0;exitPerimeter=0;" parent="1" source="Fi-2ybk5s7FLa70-GjzI-101" target="Fi-2ybk5s7FLa70-GjzI-104" edge="1">
          <mxGeometry width="160" relative="1" as="geometry">
            <mxPoint x="900" y="280" as="sourcePoint" />
            <mxPoint x="800" y="280" as="targetPoint" />
          </mxGeometry>
        </mxCell>
        <mxCell id="Fi-2ybk5s7FLa70-GjzI-107" value="" style="endArrow=classic;endSize=12;html=1;rounded=0;fontSize=12;curved=1;endFill=1;exitX=0;exitY=0.3333333333333333;exitDx=0;exitDy=0;entryX=1;entryY=0.5;entryDx=0;entryDy=0;exitPerimeter=0;" parent="1" source="Fi-2ybk5s7FLa70-GjzI-101" target="Fi-2ybk5s7FLa70-GjzI-103" edge="1">
          <mxGeometry width="160" relative="1" as="geometry">
            <mxPoint x="900" y="280" as="sourcePoint" />
            <mxPoint x="800" y="280" as="targetPoint" />
          </mxGeometry>
        </mxCell>
        <mxCell id="Fi-2ybk5s7FLa70-GjzI-108" value="" style="endArrow=classic;endSize=12;html=1;rounded=0;fontSize=12;curved=1;endFill=1;exitX=0;exitY=0.3333333333333333;exitDx=0;exitDy=0;entryX=1;entryY=0.5;entryDx=0;entryDy=0;exitPerimeter=0;" parent="1" source="Fi-2ybk5s7FLa70-GjzI-101" target="Fi-2ybk5s7FLa70-GjzI-102" edge="1">
          <mxGeometry width="160" relative="1" as="geometry">
            <mxPoint x="900" y="280" as="sourcePoint" />
            <mxPoint x="800" y="280" as="targetPoint" />
          </mxGeometry>
        </mxCell>
        <mxCell id="Fi-2ybk5s7FLa70-GjzI-109" style="edgeStyle=none;curved=1;rounded=0;orthogonalLoop=1;jettySize=auto;html=1;fontSize=12;startSize=8;endSize=8;dashed=1;endArrow=open;endFill=0;exitX=0.5;exitY=1;exitDx=0;exitDy=0;" parent="1" source="Fi-2ybk5s7FLa70-GjzI-102" target="Fi-2ybk5s7FLa70-GjzI-60" edge="1">
          <mxGeometry relative="1" as="geometry">
            <mxPoint x="359" y="664.5" as="sourcePoint" />
            <mxPoint x="469" y="664.5" as="targetPoint" />
          </mxGeometry>
        </mxCell>
        <mxCell id="Fi-2ybk5s7FLa70-GjzI-110" value="&amp;lt;&amp;lt;include&amp;gt;&amp;gt;" style="edgeLabel;html=1;align=center;verticalAlign=middle;resizable=0;points=[];fontSize=12;" parent="Fi-2ybk5s7FLa70-GjzI-109" vertex="1" connectable="0">
          <mxGeometry x="0.0364" y="2" relative="1" as="geometry">
            <mxPoint as="offset" />
          </mxGeometry>
        </mxCell>
        <mxCell id="Fi-2ybk5s7FLa70-GjzI-111" style="edgeStyle=none;curved=1;rounded=0;orthogonalLoop=1;jettySize=auto;html=1;fontSize=12;startSize=8;endSize=8;dashed=1;endArrow=open;endFill=0;exitX=0;exitY=1;exitDx=0;exitDy=0;" parent="1" source="Fi-2ybk5s7FLa70-GjzI-103" target="Fi-2ybk5s7FLa70-GjzI-60" edge="1">
          <mxGeometry relative="1" as="geometry">
            <mxPoint x="359" y="664.5" as="sourcePoint" />
            <mxPoint x="469" y="664.5" as="targetPoint" />
          </mxGeometry>
        </mxCell>
        <mxCell id="Fi-2ybk5s7FLa70-GjzI-112" value="&amp;lt;&amp;lt;include&amp;gt;&amp;gt;" style="edgeLabel;html=1;align=center;verticalAlign=middle;resizable=0;points=[];fontSize=12;" parent="Fi-2ybk5s7FLa70-GjzI-111" vertex="1" connectable="0">
          <mxGeometry x="0.0364" y="2" relative="1" as="geometry">
            <mxPoint as="offset" />
          </mxGeometry>
        </mxCell>
        <mxCell id="Fi-2ybk5s7FLa70-GjzI-113" style="edgeStyle=none;curved=1;rounded=0;orthogonalLoop=1;jettySize=auto;html=1;fontSize=12;startSize=8;endSize=8;dashed=1;endArrow=open;endFill=0;exitX=0;exitY=1;exitDx=0;exitDy=0;" parent="1" source="Fi-2ybk5s7FLa70-GjzI-104" target="Fi-2ybk5s7FLa70-GjzI-60" edge="1">
          <mxGeometry relative="1" as="geometry">
            <mxPoint x="359" y="664.5" as="sourcePoint" />
            <mxPoint x="469" y="664.5" as="targetPoint" />
          </mxGeometry>
        </mxCell>
        <mxCell id="Fi-2ybk5s7FLa70-GjzI-114" value="&amp;lt;&amp;lt;include&amp;gt;&amp;gt;" style="edgeLabel;html=1;align=center;verticalAlign=middle;resizable=0;points=[];fontSize=12;" parent="Fi-2ybk5s7FLa70-GjzI-113" vertex="1" connectable="0">
          <mxGeometry x="0.0364" y="2" relative="1" as="geometry">
            <mxPoint as="offset" />
          </mxGeometry>
        </mxCell>
        <mxCell id="Fi-2ybk5s7FLa70-GjzI-115" value="내정보&lt;div&gt;수정&lt;/div&gt;" style="ellipse;whiteSpace=wrap;html=1;" parent="1" vertex="1">
          <mxGeometry x="560" y="630" width="50" height="50" as="geometry" />
        </mxCell>
        <mxCell id="Fi-2ybk5s7FLa70-GjzI-116" value="회원탈퇴" style="ellipse;whiteSpace=wrap;html=1;" parent="1" vertex="1">
          <mxGeometry x="630" y="590" width="50" height="50" as="geometry" />
        </mxCell>
        <mxCell id="Fi-2ybk5s7FLa70-GjzI-117" value="내정보&lt;div&gt;확인&lt;/div&gt;" style="ellipse;whiteSpace=wrap;html=1;" parent="1" vertex="1">
          <mxGeometry x="680" y="530" width="50" height="50" as="geometry" />
        </mxCell>
        <mxCell id="Fi-2ybk5s7FLa70-GjzI-118" value="" style="endArrow=block;endSize=12;html=1;rounded=0;fontSize=12;curved=1;endFill=0;entryX=1;entryY=1;entryDx=0;entryDy=0;exitX=0;exitY=0.5;exitDx=0;exitDy=0;" parent="1" source="Fi-2ybk5s7FLa70-GjzI-70" target="Fi-2ybk5s7FLa70-GjzI-62" edge="1">
          <mxGeometry width="160" relative="1" as="geometry">
            <mxPoint x="410" y="550" as="sourcePoint" />
            <mxPoint x="660" y="555" as="targetPoint" />
          </mxGeometry>
        </mxCell>
        <mxCell id="Fi-2ybk5s7FLa70-GjzI-119" value="" style="endArrow=block;endSize=12;html=1;rounded=0;fontSize=12;curved=1;endFill=0;entryX=1;entryY=0.5;entryDx=0;entryDy=0;" parent="1" source="Fi-2ybk5s7FLa70-GjzI-117" target="Fi-2ybk5s7FLa70-GjzI-60" edge="1">
          <mxGeometry width="160" relative="1" as="geometry">
            <mxPoint x="900" y="280" as="sourcePoint" />
            <mxPoint x="800" y="280" as="targetPoint" />
          </mxGeometry>
        </mxCell>
        <mxCell id="Fi-2ybk5s7FLa70-GjzI-120" value="" style="endArrow=block;endSize=12;html=1;rounded=0;fontSize=12;curved=1;endFill=0;entryX=1;entryY=0.5;entryDx=0;entryDy=0;exitX=0;exitY=0;exitDx=0;exitDy=0;" parent="1" source="Fi-2ybk5s7FLa70-GjzI-116" target="Fi-2ybk5s7FLa70-GjzI-60" edge="1">
          <mxGeometry width="160" relative="1" as="geometry">
            <mxPoint x="900" y="280" as="sourcePoint" />
            <mxPoint x="800" y="280" as="targetPoint" />
          </mxGeometry>
        </mxCell>
        <mxCell id="Fi-2ybk5s7FLa70-GjzI-121" value="" style="endArrow=block;endSize=12;html=1;rounded=0;fontSize=12;curved=1;endFill=0;entryX=1;entryY=0.5;entryDx=0;entryDy=0;exitX=0.5;exitY=0;exitDx=0;exitDy=0;" parent="1" source="Fi-2ybk5s7FLa70-GjzI-115" target="Fi-2ybk5s7FLa70-GjzI-60" edge="1">
          <mxGeometry width="160" relative="1" as="geometry">
            <mxPoint x="900" y="280" as="sourcePoint" />
            <mxPoint x="800" y="280" as="targetPoint" />
          </mxGeometry>
        </mxCell>
        <mxCell id="Fi-2ybk5s7FLa70-GjzI-124" value="" style="endArrow=classic;endSize=12;html=1;rounded=0;fontSize=12;curved=1;endFill=1;entryX=0;entryY=0.5;entryDx=0;entryDy=0;" parent="1" target="Fi-2ybk5s7FLa70-GjzI-62" edge="1">
          <mxGeometry width="160" relative="1" as="geometry">
            <mxPoint x="40" y="660" as="sourcePoint" />
            <mxPoint x="120" y="420" as="targetPoint" />
          </mxGeometry>
        </mxCell>
        <mxCell id="Fi-2ybk5s7FLa70-GjzI-125" value="use" style="edgeLabel;html=1;align=center;verticalAlign=middle;resizable=0;points=[];fontSize=12;" parent="Fi-2ybk5s7FLa70-GjzI-124" vertex="1" connectable="0">
          <mxGeometry x="0.1103" y="1" relative="1" as="geometry">
            <mxPoint as="offset" />
          </mxGeometry>
        </mxCell>
        <mxCell id="Fi-2ybk5s7FLa70-GjzI-126" style="edgeStyle=none;curved=1;rounded=0;orthogonalLoop=1;jettySize=auto;html=1;fontSize=12;startSize=8;endSize=8;dashed=1;endArrow=open;endFill=0;entryX=0;entryY=0.5;entryDx=0;entryDy=0;" parent="1" source="Fi-2ybk5s7FLa70-GjzI-27" target="Fi-2ybk5s7FLa70-GjzI-60" edge="1">
          <mxGeometry relative="1" as="geometry">
            <mxPoint x="359" y="664.5" as="sourcePoint" />
            <mxPoint x="469" y="664.5" as="targetPoint" />
          </mxGeometry>
        </mxCell>
        <mxCell id="Fi-2ybk5s7FLa70-GjzI-127" value="&amp;lt;&amp;lt;include&amp;gt;&amp;gt;" style="edgeLabel;html=1;align=center;verticalAlign=middle;resizable=0;points=[];fontSize=12;" parent="Fi-2ybk5s7FLa70-GjzI-126" vertex="1" connectable="0">
          <mxGeometry x="0.0364" y="2" relative="1" as="geometry">
            <mxPoint as="offset" />
          </mxGeometry>
        </mxCell>
      </root>
    </mxGraphModel>
  </diagram>
  <diagram id="HudZZAOZhy-Lfexi5aZm" name="페이지-2">
    <mxGraphModel dx="607" dy="1949" grid="1" gridSize="10" guides="1" tooltips="1" connect="1" arrows="1" fold="1" page="1" pageScale="1" pageWidth="827" pageHeight="1169" math="0" shadow="0">
      <root>
        <mxCell id="0" />
        <mxCell id="1" parent="0" />
        <mxCell id="YTkO29Dv_eOW2ismKvbz-23" value="유스케이스명 : 플레이리스트" style="shape=table;startSize=30;container=1;collapsible=1;childLayout=tableLayout;fixedRows=1;rowLines=0;fontStyle=1;align=center;resizeLast=1;html=1;" vertex="1" parent="1">
          <mxGeometry x="1010" y="-560" width="510" height="710" as="geometry" />
        </mxCell>
        <mxCell id="YTkO29Dv_eOW2ismKvbz-24" value="" style="shape=tableRow;horizontal=0;startSize=0;swimlaneHead=0;swimlaneBody=0;fillColor=none;collapsible=0;dropTarget=0;points=[[0,0.5],[1,0.5]];portConstraint=eastwest;top=0;left=0;right=0;bottom=1;strokeColor=default;verticalAlign=middle;fontStyle=0" vertex="1" parent="YTkO29Dv_eOW2ismKvbz-23">
          <mxGeometry y="30" width="510" height="30" as="geometry" />
        </mxCell>
        <mxCell id="YTkO29Dv_eOW2ismKvbz-25" value="목표" style="shape=partialRectangle;connectable=0;fillColor=none;top=0;left=0;bottom=0;right=0;fontStyle=1;overflow=hidden;whiteSpace=wrap;html=1;" vertex="1" parent="YTkO29Dv_eOW2ismKvbz-24">
          <mxGeometry width="60" height="30" as="geometry">
            <mxRectangle width="60" height="30" as="alternateBounds" />
          </mxGeometry>
        </mxCell>
        <mxCell id="YTkO29Dv_eOW2ismKvbz-26" value="&lt;span style=&quot;font-weight: 400; text-wrap: nowrap;&quot;&gt;회원은 플레이리스트에 저장된 음원을 조회 할 수 있다.&lt;/span&gt;" style="shape=partialRectangle;connectable=0;fillColor=none;top=0;left=0;bottom=0;right=0;align=left;spacingLeft=6;fontStyle=1;overflow=hidden;whiteSpace=wrap;html=1;" vertex="1" parent="YTkO29Dv_eOW2ismKvbz-24">
          <mxGeometry x="60" width="450" height="30" as="geometry">
            <mxRectangle width="450" height="30" as="alternateBounds" />
          </mxGeometry>
        </mxCell>
        <mxCell id="YTkO29Dv_eOW2ismKvbz-27" value="" style="shape=tableRow;horizontal=0;startSize=0;swimlaneHead=0;swimlaneBody=0;fillColor=none;collapsible=0;dropTarget=0;points=[[0,0.5],[1,0.5]];portConstraint=eastwest;top=0;left=0;right=0;bottom=1;" vertex="1" parent="YTkO29Dv_eOW2ismKvbz-23">
          <mxGeometry y="60" width="510" height="30" as="geometry" />
        </mxCell>
        <mxCell id="YTkO29Dv_eOW2ismKvbz-28" value="엑터" style="shape=partialRectangle;connectable=0;fillColor=none;top=0;left=0;bottom=0;right=0;fontStyle=1;overflow=hidden;whiteSpace=wrap;html=1;" vertex="1" parent="YTkO29Dv_eOW2ismKvbz-27">
          <mxGeometry width="60" height="30" as="geometry">
            <mxRectangle width="60" height="30" as="alternateBounds" />
          </mxGeometry>
        </mxCell>
        <mxCell id="YTkO29Dv_eOW2ismKvbz-29" value="회원" style="shape=partialRectangle;connectable=0;fillColor=none;top=0;left=0;bottom=0;right=0;align=left;spacingLeft=6;fontStyle=0;overflow=hidden;whiteSpace=wrap;html=1;" vertex="1" parent="YTkO29Dv_eOW2ismKvbz-27">
          <mxGeometry x="60" width="450" height="30" as="geometry">
            <mxRectangle width="450" height="30" as="alternateBounds" />
          </mxGeometry>
        </mxCell>
        <mxCell id="YTkO29Dv_eOW2ismKvbz-30" value="" style="shape=tableRow;horizontal=0;startSize=0;swimlaneHead=0;swimlaneBody=0;fillColor=none;collapsible=0;dropTarget=0;points=[[0,0.5],[1,0.5]];portConstraint=eastwest;top=0;left=0;right=0;bottom=1;" vertex="1" parent="YTkO29Dv_eOW2ismKvbz-23">
          <mxGeometry y="90" width="510" height="30" as="geometry" />
        </mxCell>
        <mxCell id="YTkO29Dv_eOW2ismKvbz-31" value="사전 조건" style="shape=partialRectangle;connectable=0;fillColor=none;top=0;left=0;bottom=0;right=0;fontStyle=1;overflow=hidden;whiteSpace=wrap;html=1;" vertex="1" parent="YTkO29Dv_eOW2ismKvbz-30">
          <mxGeometry width="60" height="30" as="geometry">
            <mxRectangle width="60" height="30" as="alternateBounds" />
          </mxGeometry>
        </mxCell>
        <mxCell id="YTkO29Dv_eOW2ismKvbz-32" value="회원의 플레이리스트에&amp;nbsp; 음원이 저장되어 있다." style="shape=partialRectangle;connectable=0;fillColor=none;top=0;left=0;bottom=0;right=0;align=left;spacingLeft=6;fontStyle=0;overflow=hidden;whiteSpace=wrap;html=1;" vertex="1" parent="YTkO29Dv_eOW2ismKvbz-30">
          <mxGeometry x="60" width="450" height="30" as="geometry">
            <mxRectangle width="450" height="30" as="alternateBounds" />
          </mxGeometry>
        </mxCell>
        <mxCell id="YTkO29Dv_eOW2ismKvbz-33" value="" style="shape=tableRow;horizontal=0;startSize=0;swimlaneHead=0;swimlaneBody=0;fillColor=none;collapsible=0;dropTarget=0;points=[[0,0.5],[1,0.5]];portConstraint=eastwest;top=0;left=0;right=0;bottom=1;" vertex="1" parent="YTkO29Dv_eOW2ismKvbz-23">
          <mxGeometry y="120" width="510" height="30" as="geometry" />
        </mxCell>
        <mxCell id="YTkO29Dv_eOW2ismKvbz-34" value="사후 처리" style="shape=partialRectangle;connectable=0;fillColor=none;top=0;left=0;bottom=0;right=0;fontStyle=1;overflow=hidden;whiteSpace=wrap;html=1;" vertex="1" parent="YTkO29Dv_eOW2ismKvbz-33">
          <mxGeometry width="60" height="30" as="geometry">
            <mxRectangle width="60" height="30" as="alternateBounds" />
          </mxGeometry>
        </mxCell>
        <mxCell id="YTkO29Dv_eOW2ismKvbz-35" value="회원은 플레이리스트를 조회한다." style="shape=partialRectangle;connectable=0;fillColor=none;top=0;left=0;bottom=0;right=0;align=left;spacingLeft=6;fontStyle=0;overflow=hidden;whiteSpace=wrap;html=1;" vertex="1" parent="YTkO29Dv_eOW2ismKvbz-33">
          <mxGeometry x="60" width="450" height="30" as="geometry">
            <mxRectangle width="450" height="30" as="alternateBounds" />
          </mxGeometry>
        </mxCell>
        <mxCell id="YTkO29Dv_eOW2ismKvbz-36" value="" style="shape=tableRow;horizontal=0;startSize=0;swimlaneHead=0;swimlaneBody=0;fillColor=none;collapsible=0;dropTarget=0;points=[[0,0.5],[1,0.5]];portConstraint=eastwest;top=0;left=0;right=0;bottom=1;" vertex="1" parent="YTkO29Dv_eOW2ismKvbz-23">
          <mxGeometry y="150" width="510" height="70" as="geometry" />
        </mxCell>
        <mxCell id="YTkO29Dv_eOW2ismKvbz-37" value="기본흐름" style="shape=partialRectangle;connectable=0;fillColor=none;top=0;left=0;bottom=0;right=0;fontStyle=1;overflow=hidden;whiteSpace=wrap;html=1;" vertex="1" parent="YTkO29Dv_eOW2ismKvbz-36">
          <mxGeometry width="60" height="70" as="geometry">
            <mxRectangle width="60" height="70" as="alternateBounds" />
          </mxGeometry>
        </mxCell>
        <mxCell id="YTkO29Dv_eOW2ismKvbz-38" value="&lt;div style=&quot;text-wrap: nowrap;&quot;&gt;1. 회원은 플레이리스트 페이지에서 저장된 음원을 조회한다.&lt;/div&gt;" style="shape=partialRectangle;connectable=0;fillColor=none;top=0;left=0;bottom=0;right=0;align=left;spacingLeft=6;fontStyle=0;overflow=hidden;whiteSpace=wrap;html=1;" vertex="1" parent="YTkO29Dv_eOW2ismKvbz-36">
          <mxGeometry x="60" width="450" height="70" as="geometry">
            <mxRectangle width="450" height="70" as="alternateBounds" />
          </mxGeometry>
        </mxCell>
        <mxCell id="YTkO29Dv_eOW2ismKvbz-39" value="" style="shape=tableRow;horizontal=0;startSize=0;swimlaneHead=0;swimlaneBody=0;fillColor=none;collapsible=0;dropTarget=0;points=[[0,0.5],[1,0.5]];portConstraint=eastwest;top=0;left=0;right=0;bottom=1;" vertex="1" parent="YTkO29Dv_eOW2ismKvbz-23">
          <mxGeometry y="220" width="510" height="260" as="geometry" />
        </mxCell>
        <mxCell id="YTkO29Dv_eOW2ismKvbz-40" value="대안흐름" style="shape=partialRectangle;connectable=0;fillColor=none;top=0;left=0;bottom=0;right=0;fontStyle=1;overflow=hidden;whiteSpace=wrap;html=1;" vertex="1" parent="YTkO29Dv_eOW2ismKvbz-39">
          <mxGeometry width="60" height="260" as="geometry">
            <mxRectangle width="60" height="260" as="alternateBounds" />
          </mxGeometry>
        </mxCell>
        <mxCell id="YTkO29Dv_eOW2ismKvbz-41" value="&lt;div&gt;&lt;br&gt;&lt;/div&gt;&lt;div&gt;1-1.회원은 음원 재생 버튼을 입력한다&lt;/div&gt;&lt;span style=&quot;background-color: initial;&quot;&gt;1-2.시스템은 음원을 출력한다.&lt;/span&gt;&lt;div&gt;&lt;br&gt;&lt;/div&gt;&lt;div&gt;2-1.회원은 음원 정지 버튼을 입력한다&lt;/div&gt;&lt;div&gt;2-2.시스템은 음원의 출력을 중단한다.&lt;br&gt;&lt;div&gt;&lt;br&gt;&lt;/div&gt;&lt;div&gt;3-1.회원은 음원 삭제 버튼을 입력한다.&lt;/div&gt;&lt;div&gt;3-2.시스템은 음원을 삭제한다.&lt;br&gt;&lt;div&gt;&lt;br&gt;&lt;div&gt;4-1.회원은 폴더 만들기 버튼을 입력한다&lt;div&gt;4-2.회원은 폴더의 이름을 입력한다.&lt;/div&gt;&lt;div&gt;4-3.시스템은 플레이리스트에 폴더를 생성한다.&lt;br&gt;&lt;/div&gt;&lt;div&gt;&lt;br&gt;&lt;/div&gt;&lt;div&gt;5-1.회원은 음원 이동 버튼을 입력한다.&lt;/div&gt;&lt;div&gt;5-2.시스템은 음원을 다른 폴더로 이동한다.&lt;/div&gt;&lt;div&gt;&lt;br&gt;&lt;/div&gt;&lt;/div&gt;&lt;/div&gt;&lt;/div&gt;&lt;/div&gt;" style="shape=partialRectangle;connectable=0;fillColor=none;top=0;left=0;bottom=0;right=0;align=left;spacingLeft=6;fontStyle=0;overflow=hidden;whiteSpace=wrap;html=1;" vertex="1" parent="YTkO29Dv_eOW2ismKvbz-39">
          <mxGeometry x="60" width="450" height="260" as="geometry">
            <mxRectangle width="450" height="260" as="alternateBounds" />
          </mxGeometry>
        </mxCell>
        <mxCell id="YTkO29Dv_eOW2ismKvbz-42" value="" style="shape=tableRow;horizontal=0;startSize=0;swimlaneHead=0;swimlaneBody=0;fillColor=none;collapsible=0;dropTarget=0;points=[[0,0.5],[1,0.5]];portConstraint=eastwest;top=0;left=0;right=0;bottom=1;" vertex="1" parent="YTkO29Dv_eOW2ismKvbz-23">
          <mxGeometry y="480" width="510" height="230" as="geometry" />
        </mxCell>
        <mxCell id="YTkO29Dv_eOW2ismKvbz-43" value="예외흐름" style="shape=partialRectangle;connectable=0;fillColor=none;top=0;left=0;bottom=0;right=0;fontStyle=1;overflow=hidden;whiteSpace=wrap;html=1;" vertex="1" parent="YTkO29Dv_eOW2ismKvbz-42">
          <mxGeometry width="60" height="230" as="geometry">
            <mxRectangle width="60" height="230" as="alternateBounds" />
          </mxGeometry>
        </mxCell>
        <mxCell id="YTkO29Dv_eOW2ismKvbz-44" value="&lt;div style=&quot;text-wrap: nowrap;&quot;&gt;1a. 회원이 플레이리스트에 저장한 음원이 음원데이터베이스에서 삭제된 경우&lt;/div&gt;&lt;div style=&quot;text-wrap: nowrap;&quot;&gt;시스템은 &#39; &quot;업로드중지 사유&quot; 로 인하여 더 이상 해당 음원을 재생 할 수 없습니다. &#39;&amp;nbsp;&lt;/div&gt;&lt;div style=&quot;text-wrap: nowrap;&quot;&gt;메세지를 회원에게 출력&lt;/div&gt;&lt;div style=&quot;text-wrap: nowrap;&quot;&gt;&lt;br&gt;&lt;/div&gt;&lt;div style=&quot;text-wrap: nowrap;&quot;&gt;2a. 음원이 재생중이지 않은 상태에서 음원 정지버튼 입력시&lt;/div&gt;&lt;div style=&quot;text-wrap: nowrap;&quot;&gt;시스템은 &#39;현재 재생중인 음원이 없습니다&#39; 메세지를 회원에게 출력&lt;/div&gt;&lt;div style=&quot;text-wrap: nowrap;&quot;&gt;&lt;br&gt;&lt;/div&gt;&lt;div style=&quot;text-wrap: nowrap;&quot;&gt;4a. 동일한 이름의 폴더가 존재하는 경우&lt;/div&gt;&lt;div style=&quot;text-wrap: nowrap;&quot;&gt;시스템은 &#39;동일한 폴더가 있습니다&#39; 라는 메세지를 회원에게 출력&lt;/div&gt;&lt;div style=&quot;text-wrap: nowrap;&quot;&gt;&lt;br&gt;&lt;/div&gt;&lt;div style=&quot;text-wrap: nowrap;&quot;&gt;5a. 이동하려는 폴더 내에 동일한 파일이 있을경우&amp;nbsp;&lt;/div&gt;&lt;div style=&quot;text-wrap: nowrap;&quot;&gt;시스템은 &#39;동일한 음원이 존재합니다&#39; 라는 메세지를 회원에게 출력&lt;/div&gt;" style="shape=partialRectangle;connectable=0;fillColor=none;top=0;left=0;bottom=0;right=0;align=left;spacingLeft=6;fontStyle=0;overflow=hidden;whiteSpace=wrap;html=1;" vertex="1" parent="YTkO29Dv_eOW2ismKvbz-42">
          <mxGeometry x="60" width="450" height="230" as="geometry">
            <mxRectangle width="450" height="230" as="alternateBounds" />
          </mxGeometry>
        </mxCell>
      </root>
    </mxGraphModel>
  </diagram>
</mxfile>
